<svg xmlns="http://www.w3.org/2000/svg" version="1.1" xmlns:xlink="http://www.w3.org/1999/xlink" width="9" height="10"><svg width="9" height="10" viewBox="0 0 9 10" fill="none" xmlns="http://www.w3.org/2000/svg">
  <path d="M2.74219 1.81689V3.38721C2.44531 3.40284 2.19922 3.51611 2.00391 3.72705C1.80859 3.93798 1.66406 4.18017 1.57031 4.45361C1.48438 4.71923 1.44141 4.99268 1.44141 5.27393C1.44141 5.55518 1.48438 5.83252 1.57031 6.10596C1.65625 6.3794 1.79688 6.62159 1.99219 6.83252C2.19531 7.03565 2.44531 7.14501 2.74219 7.16064H5.13477V8.73096H2.37891C1.83203 8.70752 1.375 8.50439 1.00781 8.12158C0.640622 7.73877 0.378906 7.29736 0.222656 6.79736C0.0742196 6.29736 1.3727e-07 5.78955 0 5.27393C0 4.75831 0.0781255 4.2544 0.234375 3.76221C0.390625 3.26221 0.648443 2.82081 1.00781 2.43799C1.375 2.04737 1.83203 1.84034 2.37891 1.81689H2.74219Z"></path>
  <path d="M6.46875 1.81689C6.86719 1.8247 7.22266 1.94971 7.53516 2.19189C7.84765 2.43408 8.09766 2.72314 8.28516 3.05908C8.48047 3.39501 8.625 3.75049 8.71875 4.12549C8.8125 4.50049 8.85938 4.88331 8.85938 5.27393C8.85937 5.78956 8.77734 6.29736 8.61328 6.79736C8.45703 7.28955 8.19531 7.72705 7.82812 8.10986C7.46876 8.49267 7.01562 8.69971 6.46875 8.73096H6.07031V7.16064C6.36719 7.14501 6.61328 7.03565 6.80859 6.83252C7.01172 6.62159 7.15625 6.3794 7.24219 6.10596C7.32812 5.83252 7.37109 5.55518 7.37109 5.27393C7.37109 4.99268 7.32422 4.71923 7.23047 4.45361C7.14453 4.18017 7.00391 3.93798 6.80859 3.72705C6.61328 3.51611 6.36719 3.40284 6.07031 3.38721H3.66406V1.81689H6.46875Z"></path>
  <style>
    @media (prefers-color-scheme: light) {
      path { fill: black; }
    }
    @media (prefers-color-scheme: dark) {
      path { fill: white; }
    }
  </style>
</svg><style>@media (prefers-color-scheme: light) { :root { filter: contrast(1) brightness(1); } }
@media (prefers-color-scheme: dark) { :root { filter: contrast(1) brightness(1); } }
</style></svg>